<svg xmlns="http://www.w3.org/2000/svg" xmlns:xlink="http://www.w3.org/1999/xlink" width="500" zoomAndPan="magnify" viewBox="0 0 375 374.999991" height="500" preserveAspectRatio="xMidYMid meet" version="1.0"><defs><g/></defs><g fill="#000000" fill-opacity="1"><g transform="translate(34.836722, 209.999986)"><g><path d="M 9.941406 -23.238281 C 9.941406 -23.519531 9.941406 -23.730469 9.941406 -24.007812 C 10.078125 -26.949219 10.78125 -29.75 11.757812 -32.480469 C 12.25 -34.089844 13.019531 -35.417969 14.070312 -36.679688 C 15.609375 -38.777344 17.710938 -39.6875 20.300781 -39.546875 C 21.839844 -39.410156 22.820312 -38.707031 23.589844 -37.449219 C 23.660156 -37.238281 23.730469 -37.027344 23.871094 -36.890625 C 24.359375 -35.910156 25.199219 -35.417969 26.320312 -35.558594 C 27.367188 -35.628906 28.070312 -36.257812 28.417969 -37.238281 C 28.769531 -38.148438 28.769531 -39.058594 28.417969 -40.039062 C 27.4375 -42.976562 25.339844 -44.867188 22.609375 -45.917969 C 19.738281 -46.96875 16.800781 -46.96875 13.929688 -45.988281 C 10.289062 -44.726562 7.558594 -42.277344 5.460938 -39.128906 C 0.558594 -31.707031 -1.191406 -23.660156 0.980469 -14.980469 C 2.519531 -8.609375 6.019531 -3.640625 12.460938 -1.328125 C 16.660156 0.140625 20.648438 -0.421875 24.21875 -3.148438 C 26.320312 -4.691406 27.929688 -6.648438 29.1875 -8.890625 C 29.75 -9.800781 30.167969 -10.851562 30.449219 -11.898438 C 30.800781 -12.878906 30.800781 -13.929688 30.519531 -14.980469 C 30.097656 -16.589844 28.699219 -17.570312 27.089844 -17.21875 C 26.039062 -17.007812 25.480469 -16.238281 24.988281 -15.257812 C 24.078125 -13.089844 22.960938 -11.058594 21.140625 -9.378906 C 18.269531 -6.71875 14.699219 -8.050781 13.300781 -10.570312 C 11.128906 -14.488281 10.148438 -18.757812 9.941406 -23.238281 Z M 13.371094 -2.660156 C 10.359375 -2.660156 6.371094 -6.019531 5.460938 -8.609375 C 6.71875 -7.488281 7.839844 -6.300781 9.101562 -5.320312 C 10.359375 -4.339844 11.757812 -3.640625 13.371094 -2.660156 Z M 15.121094 -44.9375 C 12.878906 -43.539062 10.78125 -42.207031 8.679688 -40.878906 C 9.167969 -42.558594 13.089844 -45.078125 15.121094 -44.9375 Z M 29.257812 -15.820312 C 26.878906 -16.167969 26.460938 -14.140625 25.128906 -13.019531 C 25.128906 -13.371094 25.058594 -13.578125 25.128906 -13.789062 C 25.617188 -14.558594 26.039062 -15.46875 26.667969 -16.097656 C 27.367188 -16.9375 28.277344 -16.800781 29.257812 -15.820312 Z M 27.648438 -37.519531 C 26.597656 -35.839844 24.21875 -36.820312 23.800781 -39.339844 C 24.988281 -38.359375 25.6875 -36.820312 27.648438 -37.519531 Z M 27.648438 -37.519531 "/></g></g></g><g fill="#000000" fill-opacity="1"><g transform="translate(67.664933, 209.999986)"><g><path d="M 0.0703125 -17.570312 C -0.0703125 -11.828125 2.03125 -7.140625 6.441406 -3.5 C 9.308594 -1.261719 12.597656 -0.351562 16.097656 0.0703125 C 18.339844 0.351562 20.578125 0.0703125 22.609375 -1.050781 C 26.738281 -3.21875 30.027344 -6.371094 31.847656 -10.710938 C 33.878906 -15.46875 34.296875 -20.507812 34.160156 -25.617188 C 34.019531 -30.167969 32.550781 -34.296875 30.730469 -38.429688 C 26.179688 -48.859375 10.21875 -50.257812 5.601562 -42.628906 C 4.550781 -41.71875 4.410156 -40.320312 5.109375 -39.269531 C 5.808594 -38.21875 7.210938 -37.867188 8.398438 -38.5 C 8.960938 -38.777344 9.449219 -39.128906 10.007812 -39.410156 C 13.371094 -41.160156 16.800781 -41.578125 20.371094 -40.320312 C 23.027344 -39.339844 24.710938 -37.378906 25.6875 -34.71875 C 27.160156 -30.800781 27.71875 -26.738281 27.230469 -22.539062 C 26.949219 -19.808594 26.527344 -17.148438 25.410156 -14.558594 C 24.847656 -13.160156 24.007812 -11.96875 22.890625 -10.988281 C 21.628906 -9.871094 20.019531 -9.238281 18.410156 -9.378906 C 14.628906 -9.730469 12.109375 -11.828125 10.917969 -15.46875 C 10.078125 -17.847656 10.21875 -20.300781 10.5 -22.75 C 10.917969 -25.828125 12.390625 -28.488281 14.210938 -31.007812 C 15.121094 -32.199219 16.238281 -32.96875 17.570312 -33.457031 C 17.988281 -33.527344 18.410156 -33.667969 18.757812 -33.808594 C 20.230469 -34.296875 20.929688 -35.140625 20.929688 -36.46875 C 20.859375 -37.730469 20.160156 -38.570312 18.757812 -39.058594 C 16.378906 -39.828125 14 -39.6875 11.757812 -38.570312 C 9.519531 -37.519531 7.558594 -35.980469 5.949219 -34.160156 C 1.820312 -29.398438 0.140625 -23.730469 0.0703125 -17.570312 Z M 26.738281 -14.347656 C 27.300781 -17.21875 28.070312 -20.019531 28.417969 -22.890625 C 28.769531 -25.828125 28.628906 -28.699219 28 -31.640625 C 28.140625 -31.640625 28.277344 -31.640625 28.347656 -31.707031 C 28.558594 -31.289062 28.769531 -30.9375 28.839844 -30.519531 C 30.167969 -25.339844 29.609375 -20.230469 27.648438 -15.257812 C 27.507812 -14.910156 27.230469 -14.558594 27.019531 -14.210938 C 26.949219 -14.210938 26.808594 -14.28125 26.738281 -14.347656 Z M 4.898438 -8.050781 C 7.839844 -4.550781 11.96875 -3.011719 16.308594 -1.328125 C 15.609375 -0.839844 15.121094 -1.050781 14.628906 -1.121094 C 13.019531 -1.398438 11.550781 -1.960938 10.078125 -2.800781 C 8.328125 -3.78125 6.648438 -4.898438 5.390625 -6.578125 C 5.039062 -6.929688 4.828125 -7.417969 4.550781 -7.839844 C 4.691406 -7.910156 4.761719 -7.980469 4.898438 -8.050781 Z M 4.550781 -28.417969 C 4.128906 -31.21875 7.628906 -35.769531 10.429688 -36.257812 C 10.078125 -35.347656 9.238281 -35.140625 8.75 -34.507812 C 8.191406 -33.949219 7.628906 -33.390625 7.140625 -32.757812 C 6.648438 -32.058594 6.230469 -31.359375 5.808594 -30.660156 C 5.460938 -30.027344 5.039062 -29.328125 4.550781 -28.417969 Z M 6.089844 -41.71875 C 6.71875 -40.039062 7.980469 -40.109375 9.238281 -40.179688 C 8.539062 -39.269531 7.558594 -38.988281 6.648438 -39.480469 C 5.878906 -39.898438 5.667969 -40.457031 6.089844 -41.71875 Z M 17.007812 -34.089844 C 17.988281 -35 18.828125 -35.769531 19.738281 -36.539062 C 19.949219 -35.140625 18.757812 -34.089844 17.007812 -34.089844 Z M 17.007812 -34.089844 "/></g></g></g><g fill="#000000" fill-opacity="1"><g transform="translate(103.992952, 209.999986)"><g><path d="M 12.53125 -24.640625 C 12.667969 -24.640625 12.738281 -24.640625 12.808594 -24.640625 C 12.878906 -24.289062 13.019531 -23.9375 13.089844 -23.589844 C 13.648438 -20.648438 14.28125 -17.710938 14.769531 -14.699219 C 15.328125 -11.828125 15.75 -8.960938 16.308594 -6.160156 C 16.660156 -4.550781 17.078125 -2.941406 17.988281 -1.539062 C 18.621094 -0.628906 19.390625 0.0703125 20.4375 0.351562 C 22.328125 0.839844 24.148438 0.0703125 25.199219 -1.75 C 25.828125 -2.941406 26.390625 -4.269531 26.808594 -5.601562 C 27.859375 -8.960938 28.839844 -12.25 29.890625 -15.609375 C 31.359375 -20.300781 32.828125 -24.988281 34.296875 -29.679688 C 34.367188 -30.027344 34.4375 -30.449219 34.929688 -30.800781 C 35 -30.308594 35.070312 -29.957031 35.070312 -29.609375 C 35.277344 -25.898438 35.417969 -22.1875 35.699219 -18.550781 C 36.046875 -14.347656 36.539062 -10.21875 36.957031 -6.089844 C 37.097656 -5.179688 37.378906 -4.269531 37.796875 -3.5 C 38.847656 -1.820312 40.386719 -0.839844 42.347656 -0.980469 C 44.378906 -1.121094 45.777344 -2.308594 46.546875 -4.199219 C 46.96875 -5.179688 47.109375 -6.160156 46.96875 -7.210938 C 46.898438 -7.910156 46.828125 -8.609375 46.757812 -9.308594 C 46.339844 -14 45.988281 -18.757812 45.5 -23.449219 C 45.078125 -27.230469 44.378906 -30.9375 43.886719 -34.71875 C 43.539062 -37.238281 43.117188 -39.6875 42.277344 -42.136719 C 41.859375 -43.46875 41.230469 -44.726562 40.179688 -45.707031 C 38.988281 -46.898438 37.589844 -47.179688 36.046875 -46.757812 C 35 -46.476562 34.160156 -45.847656 33.390625 -44.9375 C 31.640625 -42.839844 30.449219 -40.386719 29.539062 -37.796875 C 27.4375 -31.570312 25.269531 -25.410156 23.167969 -19.25 C 23.027344 -18.828125 22.890625 -18.480469 22.679688 -18.128906 C 22.398438 -18.480469 22.328125 -18.828125 22.257812 -19.179688 C 21.769531 -21.910156 21.347656 -24.570312 20.929688 -27.300781 C 20.300781 -30.867188 19.390625 -34.296875 18.128906 -37.730469 C 17.847656 -38.5 17.5 -39.199219 17.007812 -39.898438 C 15.960938 -41.507812 14.417969 -42.136719 12.53125 -41.929688 C 10.78125 -41.648438 9.660156 -40.667969 8.820312 -39.269531 C 7.488281 -37.027344 6.511719 -34.648438 5.667969 -32.269531 C 3.359375 -25.757812 1.75 -19.039062 0.421875 -12.320312 C 0.210938 -10.851562 -0.0703125 -9.449219 0.140625 -7.980469 C 0.351562 -6.511719 1.121094 -5.460938 2.378906 -5.179688 C 3.710938 -4.828125 4.898438 -5.390625 5.738281 -6.71875 C 6.089844 -7.28125 6.441406 -7.910156 6.648438 -8.609375 C 8.46875 -13.507812 10.21875 -18.410156 12.039062 -23.308594 C 12.179688 -23.730469 12.390625 -24.148438 12.53125 -24.640625 Z M 14.347656 -40.25 C 11.828125 -39.96875 10.710938 -38.21875 9.519531 -36.398438 C 9.101562 -35.769531 8.75 -35.140625 8.257812 -34.367188 C 8.121094 -34.71875 8.050781 -34.859375 8.050781 -34.929688 C 8.609375 -37.167969 9.730469 -39.128906 11.757812 -40.386719 C 12.179688 -40.597656 12.667969 -40.738281 13.160156 -40.808594 C 13.578125 -40.878906 14 -40.878906 14.347656 -40.25 Z M 38.5 -8.960938 C 38.917969 -6.230469 39.898438 -3.917969 42.699219 -2.660156 C 42.207031 -2.101562 41.71875 -2.171875 41.367188 -2.308594 C 40.808594 -2.589844 40.179688 -2.871094 39.757812 -3.289062 C 38.429688 -4.761719 37.867188 -6.511719 38.078125 -8.539062 C 38.078125 -8.609375 38.148438 -8.75 38.21875 -8.890625 C 38.21875 -8.890625 38.289062 -8.890625 38.5 -8.960938 Z M 31.640625 -38.917969 C 31.707031 -39.128906 31.640625 -39.410156 31.707031 -39.617188 C 32.339844 -41.296875 33.039062 -42.910156 34.296875 -44.238281 C 34.789062 -44.726562 35.417969 -45.148438 36.046875 -45.570312 C 36.46875 -45.847656 36.539062 -45.777344 37.308594 -45.5 C 37.238281 -45.429688 37.167969 -45.21875 37.097656 -45.21875 C 35.488281 -44.519531 34.507812 -43.1875 33.667969 -41.71875 C 33.25 -40.949219 32.828125 -40.179688 32.410156 -39.480469 C 32.269531 -39.199219 32.058594 -39.058594 31.917969 -38.777344 C 31.847656 -38.847656 31.777344 -38.847656 31.640625 -38.917969 Z M 18.269531 -7.417969 C 19.667969 -5.25 20.160156 -2.378906 23.238281 -1.191406 C 22.679688 -1.050781 22.46875 -0.839844 22.328125 -0.910156 C 21.488281 -0.980469 20.648438 -1.191406 20.089844 -1.890625 C 18.828125 -3.5 18.410156 -5.390625 18.269531 -7.417969 Z M 1.890625 -12.390625 C 1.960938 -11.339844 1.890625 -10.289062 2.171875 -9.238281 C 2.449219 -8.257812 3.011719 -7.351562 3.5 -6.371094 C 2.941406 -6.160156 2.589844 -6.511719 2.171875 -6.929688 C 0.910156 -8.121094 0.699219 -10.78125 1.890625 -12.390625 Z M 1.890625 -12.390625 "/></g></g></g><g fill="#000000" fill-opacity="1"><g transform="translate(153.130263, 209.999986)"><g><path d="M 5.179688 -5.808594 C 4.621094 -5.601562 4.199219 -5.460938 3.710938 -5.320312 C 3.011719 -5.109375 2.308594 -4.898438 1.609375 -4.621094 C 0.421875 -3.988281 -0.210938 -2.660156 0.0703125 -1.539062 C 0.351562 -0.210938 1.539062 0.628906 2.941406 0.558594 C 3.429688 0.558594 3.917969 0.488281 4.410156 0.421875 C 5.109375 0.28125 5.808594 0.210938 6.511719 0.140625 C 8.679688 0 10.851562 0.140625 13.019531 0.488281 C 14 0.628906 15.050781 0.769531 16.03125 0.769531 C 17.570312 0.769531 18.6875 -0.140625 18.96875 -1.539062 C 19.320312 -2.941406 18.828125 -4.339844 17.5 -4.96875 C 16.660156 -5.390625 15.75 -5.53125 14.910156 -5.808594 C 14.488281 -5.949219 14.070312 -6.089844 13.71875 -6.160156 C 13.789062 -7.769531 13.929688 -9.238281 13.859375 -10.640625 C 13.789062 -14.980469 13.648438 -19.320312 13.507812 -23.660156 C 13.441406 -25.757812 13.371094 -27.789062 13.230469 -29.890625 C 12.949219 -33.457031 12.597656 -37.027344 12.320312 -40.667969 C 12.320312 -41.019531 12.390625 -41.4375 12.390625 -41.929688 C 12.949219 -41.859375 13.371094 -41.789062 13.859375 -41.789062 C 15.328125 -41.648438 16.730469 -42.558594 17.007812 -43.957031 C 17.429688 -45.5 16.730469 -46.96875 15.191406 -47.457031 C 14.347656 -47.738281 13.441406 -47.878906 12.53125 -47.949219 C 9.660156 -48.226562 6.859375 -47.527344 4.058594 -46.828125 C 3.289062 -46.617188 2.589844 -46.339844 1.890625 -45.917969 C 0.980469 -45.5 0.488281 -44.726562 0.488281 -43.679688 C 0.488281 -42.628906 0.980469 -41.789062 1.890625 -41.507812 C 2.589844 -41.296875 3.359375 -41.367188 4.058594 -41.367188 C 4.621094 -41.367188 5.109375 -41.578125 5.808594 -41.71875 C 5.808594 -40.878906 5.808594 -40.25 5.808594 -39.6875 C 5.601562 -36.75 5.390625 -33.878906 5.179688 -31.007812 C 4.691406 -25.269531 4.410156 -19.53125 4.480469 -13.789062 C 4.480469 -11.199219 4.480469 -8.539062 5.179688 -5.808594 Z M 17.78125 -3.359375 C 18.269531 -2.589844 18.199219 -1.960938 17.570312 -1.121094 C 16.871094 -0.210938 16.03125 0.210938 14.558594 -0.210938 C 15.398438 -0.699219 16.097656 -0.980469 16.660156 -1.46875 C 17.148438 -1.960938 17.429688 -2.730469 17.78125 -3.359375 Z M 13.300781 -42.839844 C 15.328125 -44.238281 15.328125 -44.238281 15.960938 -45.5 C 16.449219 -44.9375 16.449219 -44.167969 15.960938 -43.46875 C 15.328125 -42.628906 14.417969 -42.417969 13.300781 -42.839844 Z M 2.800781 -45.636719 C 2.308594 -44.308594 2.101562 -43.117188 3.710938 -42.417969 C 2.660156 -42.070312 2.03125 -42.347656 1.679688 -43.257812 C 1.328125 -44.238281 1.75 -45.21875 2.800781 -45.636719 Z M 1.539062 -3.21875 C 1.609375 -1.820312 2.519531 -1.121094 3.710938 -0.558594 C 2.800781 -0.140625 2.101562 -0.28125 1.609375 -0.910156 C 0.980469 -1.679688 0.910156 -2.449219 1.539062 -3.21875 Z M 1.539062 -3.21875 "/></g></g></g><g fill="#000000" fill-opacity="1"><g transform="translate(174.339105, 209.999986)"><g><path d="M 9.941406 -23.238281 C 9.941406 -23.519531 9.941406 -23.730469 9.941406 -24.007812 C 10.078125 -26.949219 10.78125 -29.75 11.757812 -32.480469 C 12.25 -34.089844 13.019531 -35.417969 14.070312 -36.679688 C 15.609375 -38.777344 17.710938 -39.6875 20.300781 -39.546875 C 21.839844 -39.410156 22.820312 -38.707031 23.589844 -37.449219 C 23.660156 -37.238281 23.730469 -37.027344 23.871094 -36.890625 C 24.359375 -35.910156 25.199219 -35.417969 26.320312 -35.558594 C 27.367188 -35.628906 28.070312 -36.257812 28.417969 -37.238281 C 28.769531 -38.148438 28.769531 -39.058594 28.417969 -40.039062 C 27.4375 -42.976562 25.339844 -44.867188 22.609375 -45.917969 C 19.738281 -46.96875 16.800781 -46.96875 13.929688 -45.988281 C 10.289062 -44.726562 7.558594 -42.277344 5.460938 -39.128906 C 0.558594 -31.707031 -1.191406 -23.660156 0.980469 -14.980469 C 2.519531 -8.609375 6.019531 -3.640625 12.460938 -1.328125 C 16.660156 0.140625 20.648438 -0.421875 24.21875 -3.148438 C 26.320312 -4.691406 27.929688 -6.648438 29.1875 -8.890625 C 29.75 -9.800781 30.167969 -10.851562 30.449219 -11.898438 C 30.800781 -12.878906 30.800781 -13.929688 30.519531 -14.980469 C 30.097656 -16.589844 28.699219 -17.570312 27.089844 -17.21875 C 26.039062 -17.007812 25.480469 -16.238281 24.988281 -15.257812 C 24.078125 -13.089844 22.960938 -11.058594 21.140625 -9.378906 C 18.269531 -6.71875 14.699219 -8.050781 13.300781 -10.570312 C 11.128906 -14.488281 10.148438 -18.757812 9.941406 -23.238281 Z M 13.371094 -2.660156 C 10.359375 -2.660156 6.371094 -6.019531 5.460938 -8.609375 C 6.71875 -7.488281 7.839844 -6.300781 9.101562 -5.320312 C 10.359375 -4.339844 11.757812 -3.640625 13.371094 -2.660156 Z M 15.121094 -44.9375 C 12.878906 -43.539062 10.78125 -42.207031 8.679688 -40.878906 C 9.167969 -42.558594 13.089844 -45.078125 15.121094 -44.9375 Z M 29.257812 -15.820312 C 26.878906 -16.167969 26.460938 -14.140625 25.128906 -13.019531 C 25.128906 -13.371094 25.058594 -13.578125 25.128906 -13.789062 C 25.617188 -14.558594 26.039062 -15.46875 26.667969 -16.097656 C 27.367188 -16.9375 28.277344 -16.800781 29.257812 -15.820312 Z M 27.648438 -37.519531 C 26.597656 -35.839844 24.21875 -36.820312 23.800781 -39.339844 C 24.988281 -38.359375 25.6875 -36.820312 27.648438 -37.519531 Z M 27.648438 -37.519531 "/></g></g></g><g fill="#000000" fill-opacity="1"><g transform="translate(207.167315, 209.999986)"><g><path d="M 5.179688 -5.808594 C 4.621094 -5.601562 4.199219 -5.460938 3.710938 -5.320312 C 3.011719 -5.109375 2.308594 -4.898438 1.609375 -4.621094 C 0.421875 -3.988281 -0.210938 -2.660156 0.0703125 -1.539062 C 0.351562 -0.210938 1.539062 0.628906 2.941406 0.558594 C 3.429688 0.558594 3.917969 0.488281 4.410156 0.421875 C 5.109375 0.28125 5.808594 0.210938 6.511719 0.140625 C 8.679688 0 10.851562 0.140625 13.019531 0.488281 C 14 0.628906 15.050781 0.769531 16.03125 0.769531 C 17.570312 0.769531 18.6875 -0.140625 18.96875 -1.539062 C 19.320312 -2.941406 18.828125 -4.339844 17.5 -4.96875 C 16.660156 -5.390625 15.75 -5.53125 14.910156 -5.808594 C 14.488281 -5.949219 14.070312 -6.089844 13.71875 -6.160156 C 13.789062 -7.769531 13.929688 -9.238281 13.859375 -10.640625 C 13.789062 -14.980469 13.648438 -19.320312 13.507812 -23.660156 C 13.441406 -25.757812 13.371094 -27.789062 13.230469 -29.890625 C 12.949219 -33.457031 12.597656 -37.027344 12.320312 -40.667969 C 12.320312 -41.019531 12.390625 -41.4375 12.390625 -41.929688 C 12.949219 -41.859375 13.371094 -41.789062 13.859375 -41.789062 C 15.328125 -41.648438 16.730469 -42.558594 17.007812 -43.957031 C 17.429688 -45.5 16.730469 -46.96875 15.191406 -47.457031 C 14.347656 -47.738281 13.441406 -47.878906 12.53125 -47.949219 C 9.660156 -48.226562 6.859375 -47.527344 4.058594 -46.828125 C 3.289062 -46.617188 2.589844 -46.339844 1.890625 -45.917969 C 0.980469 -45.5 0.488281 -44.726562 0.488281 -43.679688 C 0.488281 -42.628906 0.980469 -41.789062 1.890625 -41.507812 C 2.589844 -41.296875 3.359375 -41.367188 4.058594 -41.367188 C 4.621094 -41.367188 5.109375 -41.578125 5.808594 -41.71875 C 5.808594 -40.878906 5.808594 -40.25 5.808594 -39.6875 C 5.601562 -36.75 5.390625 -33.878906 5.179688 -31.007812 C 4.691406 -25.269531 4.410156 -19.53125 4.480469 -13.789062 C 4.480469 -11.199219 4.480469 -8.539062 5.179688 -5.808594 Z M 17.78125 -3.359375 C 18.269531 -2.589844 18.199219 -1.960938 17.570312 -1.121094 C 16.871094 -0.210938 16.03125 0.210938 14.558594 -0.210938 C 15.398438 -0.699219 16.097656 -0.980469 16.660156 -1.46875 C 17.148438 -1.960938 17.429688 -2.730469 17.78125 -3.359375 Z M 13.300781 -42.839844 C 15.328125 -44.238281 15.328125 -44.238281 15.960938 -45.5 C 16.449219 -44.9375 16.449219 -44.167969 15.960938 -43.46875 C 15.328125 -42.628906 14.417969 -42.417969 13.300781 -42.839844 Z M 2.800781 -45.636719 C 2.308594 -44.308594 2.101562 -43.117188 3.710938 -42.417969 C 2.660156 -42.070312 2.03125 -42.347656 1.679688 -43.257812 C 1.328125 -44.238281 1.75 -45.21875 2.800781 -45.636719 Z M 1.539062 -3.21875 C 1.609375 -1.820312 2.519531 -1.121094 3.710938 -0.558594 C 2.800781 -0.140625 2.101562 -0.28125 1.609375 -0.910156 C 0.980469 -1.679688 0.910156 -2.449219 1.539062 -3.21875 Z M 1.539062 -3.21875 "/></g></g></g><g fill="#000000" fill-opacity="1"><g transform="translate(228.376169, 209.999986)"><g><path d="M 14.910156 -47.527344 C 13.859375 -47.527344 12.738281 -47.527344 11.691406 -47.527344 C 10.917969 -47.316406 10.21875 -47.109375 9.449219 -46.96875 C 4.621094 -46.058594 1.328125 -42.699219 0.839844 -37.796875 C 0.421875 -33.738281 0.28125 -29.679688 0.0703125 -25.617188 C 0 -23.519531 0.210938 -21.417969 0.140625 -19.320312 C 0 -14.910156 -0.0703125 -10.570312 0.28125 -6.160156 C 0.488281 -4.269531 1.050781 -2.660156 2.238281 -1.121094 C 3.917969 0.910156 6.789062 0.699219 8.050781 -1.609375 C 8.890625 -3.078125 9.308594 -4.691406 9.238281 -6.371094 C 9.238281 -7.628906 9.238281 -8.960938 9.238281 -10.21875 C 9.308594 -11.621094 9.238281 -11.691406 10.710938 -12.109375 C 12.320312 -12.597656 13.929688 -13.019531 15.609375 -13.371094 C 16.800781 -13.648438 18.058594 -13.789062 19.109375 -14.488281 C 20.300781 -15.257812 20.789062 -16.378906 20.648438 -17.78125 C 20.578125 -19.109375 19.808594 -20.019531 18.6875 -20.578125 C 17.78125 -21 16.871094 -21.140625 15.890625 -21 C 14.070312 -20.859375 12.25 -20.507812 10.570312 -19.808594 C 10.21875 -19.667969 9.871094 -19.597656 9.378906 -19.460938 C 9.308594 -20.019531 9.238281 -20.507812 9.238281 -20.929688 C 9.308594 -24.917969 8.960938 -28.910156 8.609375 -32.96875 C 8.46875 -34.296875 8.75 -35.769531 8.820312 -37.167969 C 8.960938 -38.148438 9.589844 -38.777344 10.5 -39.199219 C 11.621094 -39.6875 12.808594 -40.039062 14.070312 -39.96875 C 16.519531 -39.898438 18.96875 -39.757812 21.417969 -39.6875 C 22.46875 -39.617188 23.589844 -39.6875 24.5 -40.320312 C 26.109375 -41.296875 26.25 -43.328125 24.777344 -44.449219 C 24.359375 -44.796875 23.871094 -45.007812 23.378906 -45.21875 C 21.070312 -46.339844 18.550781 -46.828125 16.03125 -47.179688 C 15.679688 -47.179688 15.328125 -47.386719 14.910156 -47.527344 Z M 2.730469 -37.730469 C 1.820312 -40.667969 5.109375 -45.078125 8.050781 -45.007812 C 7.140625 -44.238281 6.300781 -43.75 5.667969 -43.117188 C 4.96875 -42.347656 4.339844 -41.507812 3.851562 -40.597656 C 3.429688 -39.828125 3.148438 -38.847656 2.730469 -37.730469 Z M 2.03125 -6.71875 C 2.378906 -5.667969 2.800781 -4.621094 3.289062 -3.570312 C 3.710938 -2.449219 4.828125 -2.03125 5.949219 -1.46875 C 5.109375 -0.910156 4.410156 -1.121094 3.78125 -1.539062 C 2.449219 -2.449219 1.960938 -3.78125 1.679688 -5.320312 C 1.609375 -5.738281 1.679688 -6.230469 1.679688 -6.648438 C 1.820312 -6.648438 1.890625 -6.71875 2.03125 -6.71875 Z M 15.890625 -14.769531 C 17.148438 -15.960938 19.179688 -16.449219 19.039062 -19.039062 C 19.949219 -17.917969 19.597656 -17.078125 19.109375 -16.378906 C 18.339844 -15.328125 17.429688 -14.417969 15.890625 -14.769531 Z M 20.859375 -40.667969 C 22.121094 -41.296875 23.378906 -41.929688 24.5 -42.488281 C 24.640625 -42 24.570312 -41.71875 24.007812 -41.230469 C 23.167969 -40.457031 21.980469 -40.25 20.859375 -40.667969 Z M 20.859375 -40.667969 "/></g></g></g><g fill="#000000" fill-opacity="1"><g transform="translate(256.304649, 209.999986)"><g><path d="M 26.808594 -16.449219 C 26.878906 -16.378906 27.019531 -16.378906 27.089844 -16.308594 C 27.089844 -16.03125 27.089844 -15.75 27.019531 -15.539062 C 26.527344 -13.578125 26.109375 -11.621094 25.410156 -9.800781 C 24.710938 -8.050781 23.730469 -6.371094 22.820312 -4.691406 C 22.328125 -3.78125 21.558594 -3.21875 20.300781 -3.148438 C 18.898438 -3.148438 17.917969 -1.960938 17.847656 -0.558594 C 17.78125 0.980469 18.621094 2.238281 20.300781 2.800781 C 22.121094 3.429688 23.9375 3.429688 25.757812 2.519531 C 28.140625 1.398438 29.820312 -0.488281 31.289062 -2.589844 C 33.949219 -6.371094 35.628906 -10.5 36.46875 -15.050781 C 36.890625 -17.429688 37.238281 -19.738281 37.589844 -22.121094 C 38.636719 -28.769531 38.570312 -35.347656 37.660156 -41.929688 C 37.378906 -44.097656 36.957031 -46.199219 36.398438 -48.296875 C 35.980469 -49.976562 34.71875 -50.816406 33.320312 -50.75 C 31.777344 -50.679688 30.730469 -49.699219 30.378906 -48.019531 C 30.238281 -47.316406 30.167969 -46.6875 30.097656 -46.058594 C 29.820312 -44.449219 29.679688 -42.839844 29.398438 -41.230469 C 28.769531 -37.589844 27.507812 -34.019531 26.109375 -30.589844 C 25.199219 -28.417969 24.078125 -26.320312 22.890625 -24.289062 C 21.558594 -21.980469 19.320312 -21.417969 16.800781 -21.839844 C 16.449219 -21.839844 16.03125 -22.050781 15.75 -22.257812 C 15.121094 -22.75 14.417969 -23.308594 14 -23.9375 C 12.109375 -26.597656 10.851562 -29.609375 10.148438 -32.757812 C 9.800781 -34.160156 9.589844 -35.628906 9.378906 -37.027344 C 9.101562 -39.058594 8.890625 -41.160156 8.609375 -43.1875 C 8.46875 -44.238281 8.257812 -45.21875 7.628906 -46.128906 C 6.511719 -47.597656 4.480469 -47.738281 3.148438 -46.476562 C 2.449219 -45.847656 2.101562 -45.007812 1.820312 -44.167969 C 0.488281 -40.457031 0 -36.679688 0 -32.828125 C 0 -28.558594 0.980469 -24.570312 2.941406 -20.859375 C 5.039062 -16.9375 7.910156 -13.789062 12.320312 -12.53125 C 17.429688 -11.058594 22.121094 -11.898438 26.039062 -15.679688 C 26.25 -15.960938 26.527344 -16.167969 26.808594 -16.449219 Z M 18.199219 -14.070312 C 17.570312 -13.441406 16.660156 -13.441406 15.820312 -13.507812 C 13.160156 -13.71875 10.851562 -14.980469 8.820312 -16.730469 C 7.210938 -18.128906 5.949219 -19.878906 5.039062 -21.839844 C 4.828125 -22.1875 4.761719 -22.539062 4.691406 -22.960938 C 4.761719 -22.960938 4.828125 -23.027344 4.96875 -23.097656 C 5.109375 -22.820312 5.390625 -22.609375 5.53125 -22.398438 C 6.371094 -21.277344 7.140625 -20.160156 8.050781 -19.109375 C 10.359375 -16.308594 13.371094 -14.769531 17.078125 -14.488281 C 17.359375 -14.488281 17.710938 -14.417969 18.058594 -14.347656 C 18.058594 -14.347656 18.128906 -14.210938 18.199219 -14.070312 Z M 5.53125 -45.988281 C 5.109375 -45.359375 4.621094 -44.796875 4.269531 -44.097656 C 3.917969 -43.46875 3.710938 -42.699219 3.429688 -41.929688 C 3.21875 -41.230469 3.078125 -40.457031 2.800781 -39.617188 C 2.03125 -40.527344 2.03125 -41.789062 2.800781 -43.539062 C 3.289062 -44.726562 3.917969 -45.917969 5.320312 -46.199219 C 5.390625 -46.128906 5.460938 -46.058594 5.53125 -45.988281 Z M 19.53125 -1.609375 C 20.089844 -0.488281 20.648438 0.421875 21.699219 0.769531 C 22.609375 1.191406 23.589844 1.539062 24.570312 1.890625 C 23.800781 2.730469 22.609375 2.660156 21.070312 1.820312 C 19.667969 1.050781 19.109375 -0.0703125 19.53125 -1.609375 Z M 31.429688 -44.9375 C 31.078125 -46.410156 31.429688 -47.738281 32.339844 -48.929688 C 32.96875 -49.628906 33.390625 -49.699219 34.160156 -49.488281 C 33.597656 -48.789062 33.039062 -48.089844 32.6875 -47.316406 C 32.269531 -46.546875 32.058594 -45.636719 31.847656 -44.796875 C 31.707031 -44.867188 31.570312 -44.867188 31.429688 -44.9375 Z M 31.429688 -44.9375 "/></g></g></g><g fill="#000000" fill-opacity="1"><g transform="translate(296.762441, 209.999986)"><g><path d="M 3.011719 -6.578125 C 4.761719 -6.578125 6.160156 -8.121094 6.160156 -10.078125 C 6.160156 -11.828125 4.761719 -13.160156 3.078125 -13.160156 C 1.398438 -13.160156 0 -11.550781 0 -9.871094 C 0 -7.910156 1.261719 -6.578125 3.011719 -6.578125 Z M 2.589844 -7.910156 C 0.839844 -8.75 0.558594 -10.21875 1.75 -11.480469 C 2.238281 -10.917969 1.820312 -10.289062 2.03125 -9.730469 C 2.171875 -9.238281 2.308594 -8.679688 2.589844 -7.910156 Z M 2.589844 -7.910156 "/></g></g></g><g fill="#000000" fill-opacity="1"><g transform="translate(305.021984, 209.999986)"><g><path d="M 23.097656 -15.46875 C 23.027344 -15.46875 23.027344 -15.46875 23.027344 -15.46875 C 22.960938 -16.308594 22.960938 -17.148438 22.890625 -17.988281 C 22.609375 -19.808594 22.257812 -21.628906 22.050781 -23.519531 C 21.839844 -26.109375 21.210938 -28.699219 20.371094 -31.21875 C 19.738281 -33.039062 18.757812 -34.578125 17.359375 -35.769531 C 16.238281 -36.75 14.910156 -37.308594 13.507812 -37.238281 C 11.199219 -37.097656 9.449219 -35.910156 8.191406 -33.949219 C 6.089844 -30.867188 4.621094 -27.4375 3.5 -23.871094 C 2.308594 -20.230469 1.398438 -16.449219 0.351562 -12.808594 C 0.0703125 -11.621094 -0.140625 -10.429688 0.351562 -9.238281 C 0.839844 -8.050781 1.75 -7.417969 2.871094 -7.28125 C 3.988281 -7.210938 5.039062 -7.558594 5.53125 -8.539062 C 6.019531 -9.519531 6.371094 -10.570312 6.578125 -11.621094 C 6.859375 -12.808594 7.488281 -13.578125 8.609375 -13.929688 C 10.640625 -14.558594 12.808594 -14.699219 14.980469 -14.839844 C 15.191406 -14.839844 15.539062 -14.628906 15.539062 -14.417969 C 15.820312 -13.441406 16.03125 -12.390625 16.167969 -11.339844 C 16.378906 -9.941406 17.640625 -8.46875 18.96875 -8.398438 C 20.648438 -8.191406 22.121094 -9.238281 22.46875 -10.851562 C 22.75 -12.390625 22.890625 -13.929688 23.097656 -15.46875 Z M 9.730469 -21 C 10.5 -23.449219 11.691406 -25.6875 13.160156 -28 C 13.300781 -27.367188 13.507812 -26.808594 13.648438 -26.179688 C 13.859375 -24.710938 14.070312 -23.238281 14.28125 -21.769531 C 14.28125 -21.628906 14.140625 -21.347656 14 -21.347656 C 12.667969 -21.140625 11.269531 -21 9.871094 -20.929688 C 9.871094 -20.859375 9.800781 -20.929688 9.730469 -21 Z M 8.257812 -31.289062 C 8.46875 -32.757812 9.449219 -33.808594 10.570312 -34.648438 C 11.269531 -35.207031 12.039062 -35.769531 13.160156 -35.488281 C 12.179688 -34.789062 11.269531 -34.230469 10.5 -33.457031 C 9.730469 -32.757812 9.167969 -31.917969 8.46875 -31.148438 C 8.398438 -31.21875 8.328125 -31.21875 8.257812 -31.289062 Z M 3.289062 -8.398438 C 2.449219 -8.328125 1.75 -8.890625 1.46875 -9.800781 C 0.980469 -11.058594 1.328125 -12.667969 2.308594 -13.300781 C 1.75 -11.410156 2.03125 -9.800781 3.289062 -8.398438 Z M 17.429688 -14.070312 C 17.847656 -12.390625 18.128906 -10.710938 19.878906 -9.730469 C 19.878906 -9.660156 19.808594 -9.589844 19.808594 -9.519531 C 19.597656 -9.519531 19.390625 -9.378906 19.179688 -9.449219 C 18.199219 -9.730469 17.78125 -10.429688 17.429688 -11.339844 C 17.078125 -12.179688 17.007812 -13.089844 17.429688 -14.070312 Z M 17.429688 -14.070312 "/></g></g></g><g fill="#000000" fill-opacity="1"><g transform="translate(330.220614, 209.999986)"><g><path d="M 7.839844 -27.789062 C 7.628906 -29.609375 7.488281 -31.5 7 -33.320312 C 6.578125 -35.140625 5.460938 -35.910156 3.917969 -35.910156 C 2.449219 -35.980469 1.050781 -34.859375 0.769531 -33.179688 C 0.699219 -32.757812 0.699219 -32.269531 0.628906 -31.777344 C 0.421875 -29.398438 0.0703125 -26.949219 0 -24.5 C 0 -21.628906 0.210938 -18.757812 0.421875 -15.890625 C 0.488281 -14.699219 0.558594 -13.578125 0.769531 -12.390625 C 0.980469 -11.410156 1.261719 -10.5 2.171875 -9.941406 C 3.988281 -8.820312 6.019531 -9.519531 6.648438 -11.621094 C 7 -12.949219 7.140625 -14.417969 7.351562 -15.75 Z M 2.03125 -30.378906 C 1.820312 -30.589844 1.75 -30.660156 1.75 -30.800781 C 1.261719 -32.058594 2.449219 -34.4375 3.710938 -34.789062 C 3.917969 -34.859375 4.199219 -34.859375 4.410156 -34.789062 C 4.550781 -34.789062 4.691406 -34.71875 4.691406 -34.578125 C 4.691406 -34.507812 4.621094 -34.296875 4.550781 -34.296875 C 3.078125 -33.878906 2.800781 -32.480469 2.308594 -31.359375 C 2.238281 -31.078125 2.171875 -30.800781 2.03125 -30.378906 Z M 2.101562 -14.347656 C 2.308594 -12.878906 3.078125 -11.828125 4.269531 -10.917969 C 3.5 -10.5 3.011719 -10.710938 2.589844 -11.128906 C 1.960938 -11.691406 1.328125 -13.441406 2.101562 -14.347656 Z M 2.101562 -14.347656 "/></g></g></g></svg>